HIERARCHY
ROOT Hips
{
	OFFSET 0.000000 103.266502 0.000000
	CHANNELS 6 Xposition Yposition Zposition Xrotation Yrotation Zrotation 
	JOINT Spine
	{
		OFFSET -0.002400 12.777504 0.315300
		CHANNELS 3 Xrotation Yrotation Zrotation
		JOINT Spine1
		{
			OFFSET -0.002067 5.816869 0.032633
			CHANNELS 3 Xrotation Yrotation Zrotation
			JOINT Spine1_split
			{
				OFFSET -0.002067 5.816869 0.032633
				CHANNELS 3 Xrotation Yrotation Zrotation
				JOINT Spine2
				{
					OFFSET -0.002067 5.816869 0.032633
					CHANNELS 3 Xrotation Yrotation Zrotation
					JOINT Neck
					{
						OFFSET -0.003700 21.199493 -0.826900
						CHANNELS 3 Xrotation Yrotation Zrotation
						JOINT Head
						{
							OFFSET 0.000000 20.442200 4.834800
							CHANNELS 3 Xrotation Yrotation Zrotation
							JOINT HeadTop_End
							{
								OFFSET 0.000000 34.668396 4.968400
								CHANNELS 3 Xrotation Yrotation Zrotation
								End Site
								{
									OFFSET 0.000000 0.000000 0.000000
								}
							}
						}
					}
					JOINT LeftShoulder
					{
						OFFSET 3.288150 8.794197 -1.372250
						CHANNELS 3 Xrotation Yrotation Zrotation
						JOINT LeftShoulder_split
						{
							OFFSET 3.288150 8.794197 -1.372250
							CHANNELS 3 Xrotation Yrotation Zrotation
							JOINT LeftArm
							{
								OFFSET 11.953299 -2.279007 -0.146200
								CHANNELS 3 Xrotation Yrotation Zrotation
								JOINT LeftForeArm
								{
									OFFSET 18.448900 0.000000 0.000000
									CHANNELS 3 Xrotation Yrotation Zrotation
									JOINT LeftHand
									{
										OFFSET 29.527798 0.000000 0.000000
										CHANNELS 3 Xrotation Yrotation Zrotation
										JOINT LeftHandThumb1
										{
											OFFSET 10.739754 -2.369614 9.225399
											CHANNELS 3 Xrotation Yrotation Zrotation
											JOINT LeftHandThumb2
											{
												OFFSET 4.926170 -2.844131 2.844125
												CHANNELS 3 Xrotation Yrotation Zrotation
												JOINT LeftHandThumb3
												{
													OFFSET 4.614891 -2.664413 2.664409
													CHANNELS 3 Xrotation Yrotation Zrotation
													JOINT LeftHandThumb4
													{
														OFFSET 4.432465 -2.559082 2.559083
														CHANNELS 3 Xrotation Yrotation Zrotation
														End Site
														{
															OFFSET 0.000000 0.000000 0.000000
														}
													}
												}
											}
										}
										JOINT LeftHandIndex1
										{
											OFFSET 26.467674 0.187653 6.405298
											CHANNELS 3 Xrotation Yrotation Zrotation
											JOINT LeftHandIndex2
											{
												OFFSET 8.792900 0.000000 0.000000
												CHANNELS 3 Xrotation Yrotation Zrotation
												JOINT LeftHandIndex3
												{
													OFFSET 10.075203 0.000000 0.000000
													CHANNELS 3 Xrotation Yrotation Zrotation
													End Site
													{
														OFFSET 0.000000 0.000000 0.000000
													}
												}
											}
										}
										JOINT LeftHandMiddle1
										{
											OFFSET 25.764404 0.000000 0.000000
											CHANNELS 3 Xrotation Yrotation Zrotation
											JOINT LeftHandMiddle2
											{
												OFFSET 9.393974 0.000000 0.000000
												CHANNELS 3 Xrotation Yrotation Zrotation
												JOINT LeftHandMiddle3
												{
													OFFSET 10.771950 0.000000 0.000000
													CHANNELS 3 Xrotation Yrotation Zrotation
													End Site
													{
														OFFSET 0.000000 0.000000 0.000000
													}
												}
											}
										}
										JOINT LeftHandRing1
										{
											OFFSET 24.660927 0.144547 -6.225808
											CHANNELS 3 Xrotation Yrotation Zrotation
											JOINT LeftHandRing2
											{
												OFFSET 9.393799 0.000000 0.000000
												CHANNELS 3 Xrotation Yrotation Zrotation
												JOINT LeftHandRing3
												{
													OFFSET 9.928497 0.000000 0.000000
													CHANNELS 3 Xrotation Yrotation Zrotation
													End Site
													{
														OFFSET 0.000000 0.000000 0.000000
													}
												}
											}
										}
										JOINT LeftHandPinky1
										{
											OFFSET 23.655350 0.125290 -12.815412
											CHANNELS 3 Xrotation Yrotation Zrotation
											JOINT LeftHandPinky2
											{
												OFFSET 8.425102 0.000000 0.000000
												CHANNELS 3 Xrotation Yrotation Zrotation
												JOINT LeftHandPinky3
												{
													OFFSET 8.147003 0.000000 0.000000
													CHANNELS 3 Xrotation Yrotation Zrotation
													End Site
													{
														OFFSET 0.000000 0.000000 0.000000
													}
												}
											}
										}
									}
								}
							}
						}
					}
					JOINT RightShoulder
					{
						OFFSET -3.249400 8.794197 -1.372250
						CHANNELS 3 Xrotation Yrotation Zrotation
						JOINT RightShoulder_split
						{
							OFFSET -3.249400 8.794197 -1.372250
							CHANNELS 3 Xrotation Yrotation Zrotation
							JOINT RightArm
							{
								OFFSET -11.953299 -2.279007 -0.146200
								CHANNELS 3 Xrotation Yrotation Zrotation
								JOINT RightForeArm
								{
									OFFSET -18.448900 0.000000 0.000000
									CHANNELS 3 Xrotation Yrotation Zrotation
									JOINT RightHand
									{
										OFFSET -29.527802 0.000000 0.000000
										CHANNELS 3 Xrotation Yrotation Zrotation
										JOINT RightHandThumb1
										{
											OFFSET -10.739754 -2.369614 9.225399
											CHANNELS 3 Xrotation Yrotation Zrotation
											JOINT RightHandThumb2
											{
												OFFSET -4.926170 -2.844131 2.844125
												CHANNELS 3 Xrotation Yrotation Zrotation
												JOINT RightHandThumb3
												{
													OFFSET -4.614891 -2.664413 2.664409
													CHANNELS 3 Xrotation Yrotation Zrotation
													JOINT RightHandThumb4
													{
														OFFSET -4.432465 -2.559082 2.559083
														CHANNELS 3 Xrotation Yrotation Zrotation
														End Site
														{
															OFFSET 0.000000 0.000000 0.000000
														}
													}
												}
											}
										}
										JOINT RightHandIndex1
										{
											OFFSET -26.467674 0.187653 6.405298
											CHANNELS 3 Xrotation Yrotation Zrotation
											JOINT RightHandIndex2
											{
												OFFSET -8.792900 0.000000 0.000000
												CHANNELS 3 Xrotation Yrotation Zrotation
												JOINT RightHandIndex3
												{
													OFFSET -10.075203 0.000000 0.000000
													CHANNELS 3 Xrotation Yrotation Zrotation
													End Site
													{
														OFFSET 0.000000 0.000000 0.000000
													}
												}
											}
										}
										JOINT RightHandMiddle1
										{
											OFFSET -25.764404 0.000000 0.000000
											CHANNELS 3 Xrotation Yrotation Zrotation
											JOINT RightHandMiddle2
											{
												OFFSET -9.393974 0.000000 0.000000
												CHANNELS 3 Xrotation Yrotation Zrotation
												JOINT RightHandMiddle3
												{
													OFFSET -10.771950 0.000000 0.000000
													CHANNELS 3 Xrotation Yrotation Zrotation
													End Site
													{
														OFFSET 0.000000 0.000000 0.000000
													}
												}
											}
										}
										JOINT RightHandRing1
										{
											OFFSET -24.660927 0.144547 -6.225808
											CHANNELS 3 Xrotation Yrotation Zrotation
											JOINT RightHandRing2
											{
												OFFSET -9.393799 0.000000 0.000000
												CHANNELS 3 Xrotation Yrotation Zrotation
												JOINT RightHandRing3
												{
													OFFSET -9.928497 0.000000 0.000000
													CHANNELS 3 Xrotation Yrotation Zrotation
													End Site
													{
														OFFSET 0.000000 0.000000 0.000000
													}
												}
											}
										}
										JOINT RightHandPinky1
										{
											OFFSET -23.655350 0.125290 -12.815412
											CHANNELS 3 Xrotation Yrotation Zrotation
											JOINT RightHandPinky2
											{
												OFFSET -8.425102 0.000000 0.000000
												CHANNELS 3 Xrotation Yrotation Zrotation
												JOINT RightHandPinky3
												{
													OFFSET -8.147003 0.000000 0.000000
													CHANNELS 3 Xrotation Yrotation Zrotation
													End Site
													{
														OFFSET 0.000000 0.000000 0.000000
													}
												}
											}
										}
									}
								}
							}
						}
					}
				}
			}
		}
	}
	JOINT LeftUpLeg
	{
		OFFSET 11.394100 -6.187798 -0.413800
		CHANNELS 3 Xrotation Yrotation Zrotation
		JOINT LeftLeg
		{
			OFFSET 0.430247 -32.302673 3.732800
			CHANNELS 3 Xrotation Yrotation Zrotation
			JOINT LeftFoot
			{
				OFFSET -0.430247 -48.264931 -6.423300
				CHANNELS 3 Xrotation Yrotation Zrotation
				JOINT LeftToeBase
				{
					OFFSET 4.230900 -16.068199 23.438400
					CHANNELS 3 Xrotation Yrotation Zrotation
					JOINT LeftToe_End
					{
						OFFSET 4.510700 0.695400 19.974600
						CHANNELS 3 Xrotation Yrotation Zrotation
						End Site
						{
							OFFSET 0.000000 0.000000 0.000000
						}
					}
				}
			}
		}
	}
	JOINT RightUpLeg
	{
		OFFSET -11.333700 -6.187798 -0.413800
		CHANNELS 3 Xrotation Yrotation Zrotation
		JOINT RightLeg
		{
			OFFSET -0.430392 -32.302628 3.733000
			CHANNELS 3 Xrotation Yrotation Zrotation
			JOINT RightFoot
			{
				OFFSET 0.430392 -48.264973 -6.423500
				CHANNELS 3 Xrotation Yrotation Zrotation
				JOINT RightToeBase
				{
					OFFSET -4.230900 -16.068199 23.438400
					CHANNELS 3 Xrotation Yrotation Zrotation
					JOINT RightToe_End
					{
						OFFSET -4.510700 0.695400 19.974600
						CHANNELS 3 Xrotation Yrotation Zrotation
						End Site
						{
							OFFSET 0.000000 0.000000 0.000000
						}
					}
				}
			}
		}
	}
}
MOTION
Frames: 6
Frame Time: 0.016667
0.739523 78.281944 -1.787277 27.029313 3.127395 10.289083 32.121147 -0.202422 10.338596 3.579121 -0.232309 -3.938545 0.000000 0.000000 0.000000 3.140869 -0.180144 -2.796540 -8.309809 -0.692395 -1.107457 -23.639773 -3.178998 -4.945286 -0.000001 -0.000000 -0.000000 0.921040 -8.099535 3.227721 0.000000 0.000000 0.000000 -22.336004 21.630675 -27.124711 -0.000006 -42.110076 -0.000009 -19.023998 -3.343330 22.787949 -2.474318 3.056080 9.318486 2.660728 4.545117 0.290499 -0.839419 0.932807 2.427756 0.000001 0.000001 -0.000000 2.838264 -9.738363 17.774758 2.946397 5.649634 -55.058046 0.000004 0.000001 0.000001 0.857996 -7.704097 6.320666 1.312434 4.048624 -35.909395 -0.000001 0.000001 0.000002 -0.649886 -5.105816 -7.087037 0.259765 1.877008 -15.757026 0.000001 -0.000000 -0.000000 0.822096 3.662452 -17.520518 -0.018112 -4.056675 -0.491022 -0.000000 -0.000000 0.000000 -0.010487 -1.127500 -4.578590 0.000000 0.000000 0.000000 -38.463370 11.015788 16.018137 0.000003 33.301318 0.000006 4.826454 13.233977 -11.856354 -9.751019 7.203380 -8.614244 10.689675 -27.430641 -3.226679 -0.579987 -1.235758 -2.241250 0.000001 -0.000001 0.000000 1.269060 7.231749 -10.596070 2.736409 -5.531160 52.618917 0.000000 -0.000001 -0.000001 0.008016 5.367940 0.238518 1.251967 -3.985346 34.867644 0.000004 -0.000000 0.000001 -0.885795 3.067719 13.223264 0.268308 -1.916543 15.937056 -0.000003 0.000001 -0.000004 -0.321203 -0.767561 24.169391 -0.000007 -0.000012 0.000041 -0.000000 -0.000001 0.000001 -39.553844 2.011298 0.047979 60.519547 17.162660 11.449889 -29.561588 23.266918 -5.346889 -28.122302 0.000002 0.000006 0.000003 0.000000 -0.000001 -96.920371 10.857930 -29.130286 72.665385 -9.000158 4.302267 1.540244 -8.352082 5.073469 -5.061924 -0.000000 0.000003 -0.000001 0.000000 -0.000000 
-1.133991 78.309906 -2.654255 26.887368 3.867600 9.986756 31.941349 -0.317625 11.207647 1.746689 -0.159778 -3.884517 0.000000 0.000000 0.000000 2.816139 -0.174966 -2.865949 -8.365242 -0.534004 -1.129555 -23.694841 -2.334154 -5.041156 0.000003 -0.000000 -0.000000 0.950625 -8.072896 3.889881 0.000000 0.000000 0.000000 -21.740649 19.374875 -24.833106 0.000004 -40.497981 -0.000001 -21.811649 -2.030257 22.795022 -3.423935 1.166790 8.910747 3.907062 7.892915 0.677798 -0.446997 1.805859 2.540681 0.000000 0.000000 -0.000001 2.785951 -9.507615 17.952365 2.521383 5.328950 -50.617381 0.000001 0.000002 0.000003 0.936094 -7.392449 7.336956 1.109648 3.753372 -32.929431 -0.000000 0.000000 -0.000001 -0.413180 -4.737527 -5.024293 0.216259 1.715453 -14.369299 0.000001 0.000002 0.000002 0.804564 3.961648 -14.556255 -0.018110 -4.056674 -0.491025 0.000000 0.000001 -0.000001 -0.041845 -1.088700 -5.472468 0.000000 0.000000 0.000000 -37.730491 11.255694 13.846340 0.000006 30.222761 -0.000005 3.476055 11.717291 -11.121254 -9.864126 7.038914 -9.737921 10.476977 -26.771627 -3.188218 -0.703279 -0.945478 -2.223692 -0.000001 -0.000000 -0.000000 1.125890 6.596465 -10.416797 2.303801 -5.173563 47.983670 0.000002 -0.000001 -0.000001 0.074969 4.442795 -0.718154 1.061530 -3.697670 32.025743 0.000000 0.000001 -0.000001 -0.535946 2.183952 10.913409 0.240703 -1.817134 15.089561 0.000000 -0.000000 -0.000000 0.015828 -1.314352 20.720499 0.000239 -0.058426 0.479351 -0.000004 -0.000002 -0.000000 -31.342321 4.252921 -0.361637 56.041371 18.443775 11.800041 -29.469411 20.968537 -7.191505 -28.027302 0.000008 -0.000004 -0.000001 -0.000002 -0.000001 -98.103680 9.978486 -28.029896 73.754145 -9.348053 4.500304 1.079494 -9.877836 2.575748 -6.345396 -0.000015 -0.000002 0.000000 0.000000 0.000000 
-2.908405 78.428055 -3.502747 26.865736 4.593688 9.704531 31.527030 -0.631723 11.849821 0.367799 -0.148797 -3.805487 0.000000 0.000000 0.000000 2.452046 -0.190108 -2.912072 -8.421889 -0.369334 -1.154702 -23.743862 -1.464016 -5.130933 -0.000000 -0.000000 -0.000000 0.971960 -7.959284 4.541529 0.000000 0.000000 0.000000 -21.904121 16.849242 -22.534577 0.000004 -39.098509 0.000004 -23.656398 -0.285781 22.312795 -4.431672 -0.800035 8.481211 5.173221 11.378098 1.071907 -0.051426 2.690083 2.654257 0.000000 -0.000000 0.000000 2.732503 -9.283917 18.115115 2.105909 4.960305 -45.986448 -0.000001 0.000000 0.000001 1.004003 -7.077134 8.380211 0.914881 3.434611 -29.823154 0.000001 -0.000003 0.000001 -0.204807 -4.345579 -2.882291 0.175127 1.546079 -12.923840 0.000000 0.000000 -0.000000 0.736813 4.283113 -11.462435 -0.018109 -4.056673 -0.491026 -0.000000 0.000001 -0.000001 -0.064578 -1.068757 -6.082268 0.000000 0.000000 0.000000 -36.713250 10.859450 12.127226 0.000008 28.694304 -0.000001 2.129583 10.864744 -10.955098 -9.976091 6.810318 -10.969736 10.202511 -25.928752 -3.142058 -0.866149 -0.563347 -2.197398 -0.000000 0.000001 0.000000 0.977037 5.907162 -10.235290 1.881495 -4.760811 43.109313 -0.000003 -0.000000 -0.000001 0.109515 3.416254 -1.705888 0.874896 -3.381615 29.003483 -0.000004 -0.000000 -0.000001 -0.246969 1.160318 8.534755 0.210981 -1.703147 14.122068 -0.000001 0.000000 0.000002 0.293677 -2.003832 17.166639 0.001981 -0.166508 1.366394 -0.000003 -0.000001 -0.000002 -24.592670 6.117894 -0.620911 52.059647 20.464859 12.440297 -26.943595 16.538557 -10.229919 -34.112635 -0.000003 0.000001 -0.000001 -0.000001 -0.000001 -99.157142 9.531727 -27.366908 74.415621 -8.776211 4.787332 2.232992 -11.769656 2.325423 -7.685143 0.000001 0.000001 -0.000000 0.000001 0.000000 
-4.606637 78.622108 -4.363461 26.929867 5.311939 9.434834 30.931772 -1.073932 12.262286 -0.692194 -0.174158 -3.672692 0.000000 0.000000 0.000000 2.092758 -0.232370 -2.897376 -8.478526 -0.199915 -1.182679 -23.788200 -0.577583 -5.217082 -0.000002 -0.000000 -0.000000 0.987114 -7.809375 5.190977 0.000000 0.000000 0.000000 -22.482777 14.152355 -20.326242 0.000009 -37.925868 0.000001 -24.388032 1.697824 21.369773 -5.487786 -2.818744 8.036935 6.442161 14.960881 1.469186 0.345572 3.581939 2.767965 0.000000 0.000000 -0.000001 2.678448 -9.065570 18.269446 1.713551 4.550006 -41.256163 -0.000001 0.000001 -0.000001 1.059765 -6.759191 9.437038 0.733904 3.098157 -26.647744 -0.000000 -0.000001 0.000000 -0.032028 -3.934114 -0.698992 0.137372 1.371273 -11.440933 -0.000000 0.000001 0.000002 0.614683 4.620196 -8.297759 -0.018107 -4.056680 -0.491023 -0.000001 0.000003 0.000000 -0.084927 -1.078467 -6.512683 0.000000 0.000000 0.000000 -35.552241 9.899991 10.725430 -0.000003 28.127368 -0.000003 0.580173 10.215340 -10.972594 -10.097475 6.540342 -12.274475 9.885080 -24.958447 -3.090272 -1.056516 -0.117510 -2.164885 0.000000 0.000001 -0.000000 0.826394 5.179828 -10.052946 1.483138 -4.297299 38.067909 -0.000001 -0.000002 -0.000001 0.106505 2.319770 -2.714671 0.698498 -3.042297 25.856081 -0.000003 -0.000003 -0.000000 -0.042792 0.035383 6.110204 0.180848 -1.578603 13.069892 -0.000001 0.000003 0.000002 0.477107 -2.801958 13.540362 0.005165 -0.268467 2.203548 -0.000000 -0.000001 0.000002 -18.823880 7.747679 -0.893254 48.213373 20.876244 12.752027 -24.106347 12.780699 -11.747211 -35.199499 0.000001 0.000005 -0.000001 0.000000 -0.000000 -100.088247 8.889024 -26.595568 74.690543 -8.269043 5.075706 2.877042 -13.561106 1.108617 -9.145006 0.000022 0.000002 -0.000000 -0.000001 -0.000000 
-6.205024 78.863922 -5.275940 27.093661 6.021841 9.164637 30.072418 -1.653883 12.455049 -1.328107 -0.240168 -3.444208 0.000000 0.000000 0.000000 1.782525 -0.304216 -2.782749 -8.533927 -0.026589 -1.213275 -23.825412 0.325523 -5.298122 0.000001 0.000000 0.000000 0.996309 -7.636300 5.845519 0.000000 0.000000 0.000000 -23.597361 11.289572 -18.279956 0.000007 -37.186091 0.000003 -24.333942 2.983324 20.652911 -6.588338 -4.877158 7.580329 7.705299 18.622921 1.869784 0.743141 4.479665 2.881576 0.000000 -0.000000 0.000000 2.623735 -8.851912 18.415653 1.350379 4.100378 -36.443519 0.000001 0.000001 -0.000000 1.102779 -6.439794 10.503923 0.568909 2.745249 -23.411558 -0.000000 -0.000001 0.000002 0.101719 -3.507699 1.517303 0.103324 1.190776 -9.918067 -0.000001 0.000001 0.000001 0.433854 4.965215 -5.074283 -0.018110 -4.056677 -0.491025 -0.000000 -0.000000 0.000000 -0.106890 -1.148920 -6.729394 0.000000 0.000000 0.000000 -34.218151 8.125898 9.747428 -0.000001 28.689783 0.000002 -1.343746 9.335811 -10.936174 -10.234568 6.240615 -13.634835 9.533803 -23.887982 -3.033754 -1.268554 0.378449 -2.127373 0.000000 -0.000001 0.000000 0.675944 4.422003 -9.870227 1.118382 -3.786864 32.896790 0.000001 -0.000000 0.000000 0.062322 1.168455 -3.739859 0.536279 -2.682311 22.608435 -0.000001 0.000002 -0.000001 0.061330 -1.169478 3.650086 0.151244 -1.445191 11.947642 0.000001 0.000000 0.000001 0.543086 -3.686519 9.857291 0.009548 -0.364942 2.996026 -0.000000 0.000003 0.000002 -14.497908 9.041355 -1.131533 45.284602 19.393916 12.424356 -21.338646 10.919966 -11.489246 -25.848689 0.003861 -0.596347 -0.000001 0.000001 0.000001 -100.860215 8.257873 -25.847637 74.543120 -7.803436 5.354240 3.590547 -15.209614 -0.009507 -10.784612 -0.000026 -0.000002 -0.000000 0.000000 0.000000 
-7.678224 79.141068 -6.273064 27.363003 6.709577 8.883493 28.897021 -2.356107 12.435141 -1.486462 -0.345250 -3.079930 0.000000 0.000000 0.000000 1.561398 -0.403674 -2.535551 -8.586910 0.150305 -1.246151 -23.853630 1.244426 -5.372651 -0.000000 0.000000 -0.000000 1.001557 -7.461615 6.514348 0.000000 0.000000 0.000000 -25.304758 8.278285 -16.448620 0.000011 -37.045126 0.000007 -23.311391 3.690404 19.943879 -7.719844 -6.946701 7.119075 8.945348 22.318169 2.270693 1.139502 5.379475 2.994568 0.000000 0.000000 -0.000002 2.567204 -8.640106 18.551250 1.023109 3.616540 -31.583051 0.000000 0.000000 0.000000 1.132181 -6.120570 11.571049 0.422448 2.378958 -20.136127 -0.000000 -0.000002 0.000001 0.193602 -3.074914 3.747387 0.073504 1.005465 -8.362070 0.000000 -0.000001 -0.000000 0.192664 5.305223 -1.819271 -0.018110 -4.056679 -0.491024 -0.000000 0.000002 -0.000000 -0.133682 -1.303766 -6.726691 0.000000 0.000000 0.000000 -32.695433 5.367576 9.289837 -0.000003 30.343928 -0.000000 -3.666917 7.819320 -10.696588 -10.393401 5.937210 -15.011378 9.170403 -22.782287 -2.975078 -1.488311 0.892080 -2.087873 -0.000000 -0.000002 0.000000 0.529471 3.652288 -9.688444 0.799101 -3.241367 27.691368 0.000001 -0.000001 -0.000006 -0.023628 -0.001229 -4.770910 0.393220 -2.309341 19.324127 -0.000000 0.000002 -0.000001 0.053775 -2.405772 1.177497 0.123598 -1.307812 10.797138 -0.000001 -0.000001 -0.000000 0.472339 -4.608597 6.151784 0.015085 -0.458707 3.766779 -0.000002 0.000000 -0.000000 -11.929288 9.906506 -1.254126 43.835649 17.536943 11.948369 -18.104212 9.137399 -11.142999 -19.883456 1.547410 -14.202800 0.000000 -0.000001 0.000001 -101.458075 7.658994 -25.123821 73.933342 -7.408209 5.624037 4.363514 -16.696169 -1.033502 -11.637988 -0.000024 -0.000002 -0.000000 0.000002 0.000000 
